# AST/ASF file generated using VICON BodyLanguage
# -----------------------------------------------
:version 1.10
:name VICON
:units
  mass 1.0
  length 0.45
  angle deg
:documentation
   .ast/.asf automatically generated from VICON data using
   VICON BodyBuilder and BodyLanguage model FoxedUp or BRILLIANT.MOD
:root
   order TX TY TZ RX RY RZ
   axis XYZ
   position 0 0 0  
   orientation 0 0 0 
:bonedata
  begin
     id 1 
     name lhipjoint
     direction 0.710188 -0.616876 0.339259 
     length 2.5669 
     axis 0 0 0  XYZ
  end
  begin
     id 2 
     name lfemur
     direction 0.34202 -0.939693 0  
     length 7.12796  
     axis 0 0 20  XYZ
    dof rx ry rz
    limits (-160.0 20.0)
           (-70.0 70.0)
           (-60.0 70.0)
  end
  begin
     id 3 
     name ltibia
     direction 0.34202 -0.939693 0   
     length 7.58108   
     axis 0 0 20   XYZ
    dof rx
    limits (-10.0 170.0)
  end
  begin
     id 4 
     name lfoot
     direction 0.0669471 -0.183936 0.980656   
     length 2.17365   
     axis -90 7.62852e-016 20   XYZ
    dof rx rz
    limits (-45.0 90.0)
           (-70.0 20.0)
  end
  begin
     id 5 
     name ltoes
     direction 1.53508e-011 -4.21705e-011 1   
     length 1.09427   
     axis -90 7.62852e-016 20   XYZ
    dof rx
    limits (-90.0 20.0)
  end
  begin
     id 6 
     name rhipjoint
     direction -0.700191 -0.625589 0.34405   
     length 2.53115  
     axis 0 0 0  XYZ 
  end
  begin
     id 7 
     name rfemur
     direction -0.34202 -0.939693 0   
     length 7.33006   
     axis 0 0 -20   XYZ
    dof rx ry rz
    limits (-160.0 20.0)
           (-70.0 70.0)
           (-70.0 60.0)
  end
  begin
     id 8 
     name rtibia
     direction -0.34202 -0.939693 0   
     length 7.64926   
     axis 0 0 -20   XYZ
    dof rx
    limits (-10.0 170.0)
 end
 begin
     id 9 
     name rfoot
     direction -0.0688927 -0.189281 0.979503   
     length 2.20493  
     axis -90 -7.62852e-016 -20   XYZ
    dof rx rz
    limits (-45.0 90.0)
           (-20.0 70.0)
  end
  begin
     id 10 
     name rtoes
     direction -1.53567e-011 -4.21933e-011 1   
     length 1.10919   
     axis -90 -7.62852e-016 -20   XYZ
    dof rx
    limits (-90.0 20.0)
  end
  begin
     id 11 
     name lowerback
     direction -0.0167868 0.989873 -0.140959   
     length 2.14596   
     axis 0 0 0   XYZ
    dof rx ry rz
    limits (-20.0 45.0)
           (-30.0 30.0)
           (-30.0 30.0)
  end
  begin
     id 12 
     name upperback
     direction 0.0129109 0.998033 0.0613525   
     length 2.10457   
     axis 0 0 0   XYZ
    dof rx ry rz
    limits (-20.0 45.0)
           (-30.0 30.0)
           (-30.0 30.0)
  end
  begin
     id 13 
     name thorax
     direction 0.0177047 0.991119 0.131797   
     length 2.17652   
     axis 0 0 0   XYZ
    dof rx ry rz
    limits (-20.0 45.0)
           (-30.0 30.0)
           (-30.0 30.0)
  end
  begin
     id 14 
     name lowerneck
     direction -0.0336893 0.997548 0.0613464   
     length 1.8912   
     axis 0 0 0   XYZ
    dof rx ry rz
    limits (-20.0 45.0)
           (-30.0 30.0)
           (-30.0 30.0)
  end
  begin
     id 15 
     name upperneck
     direction 0.0435909 0.997179 -0.0611028   
     length 1.8829   
     axis 0 0 0   XYZ
    dof rx ry rz
    limits (-20.0 45.0)
           (-30.0 30.0)
           (-30.0 30.0)
  end
  begin
     id 16
     name head
     direction 0.0175076 0.999444 -0.0283782  
     length 1.93197  
     axis 0 0 0   XYZ
    dof rx ry rz
    limits (-20.0 45.0)
           (-30.0 30.0)
           (-30.0 30.0)
  end
  begin
     id 17 
     name lclavicle
     direction 0.919164 0.389875 0.0559876  
     length 3.60004  
     axis 0 0 0   XYZ
    dof ry rz
    limits (-20.0 10.0)
           (0.0 20.0)
  end
  begin
     id 18 
     name lhumerus
     direction 1 -4.48958e-011 6.89191e-027   
     length 5.43301   
     axis 180 -30 -90   XYZ
    dof rx ry rz
    limits (-60.0 90.0)
           (-90.0 90.0)
           (-90.0 90.0)
  end
  begin
     id 19
     name lradius
     direction 1 -4.4897e-011 3.24727e-027   
     length 3.15936   
     axis 180 -30 -90   XYZ
    dof rx
    limits (-10.0 170.0)
  end
  begin
     id 20
     name lwrist
     direction 1 -4.4897e-011 9.00228e-027   
     length 1.57968   
     axis -6.29373e-015 90 90   XYZ
    dof ry
    limits (-180.0 0.0)
 end
  begin
     id 21 
     name lhand
     direction 1 -4.48968e-011 1.80042e-026   
     length 0.712827   
     axis -1.14882e-014 90 90   XYZ
    dof rx rz
    limits (-90.0 90.0)
           (-45.0 45.0)
  end
  begin
     id 22 
     name lfingers
     direction 1 -4.49019e-011 3.60267e-026   
     length 0.574699   
     axis -2.29769e-014 90 90   XYZ
    dof rx
    limits (0.0 90.0)
  end
  begin
     id 23
     name lthumb
     direction 0.707107 -6.3498e-011 0.707107   
     length 0.825157   
     axis -90 45 5.37419e-014   XYZ
    dof rx rz
    limits (-45.0 45.0)
           (-45.0 45.0)
  end
  begin
     id 24 
     name rclavicle
     direction -0.890334 0.455305 -0.00132111   
     length 3.51494  
     axis 0 0 0   XYZ 
    dof ry rz
    limits (-10.0 20.0)
           (-20.0 0.0)
  end
  begin
     id 25 
     name rhumerus
     direction -1 -4.48967e-011 5.07175e-028  
     length 5.34194   
     axis 180 30 90   XYZ
    dof rx ry rz
    limits (-90.0 60.0)
           (-90.0 90.0)
           (-90.0 90.0)
  end
  begin
     id 26 
     name rradius
     direction -1 -4.48955e-011 3.30467e-027   
     length 3.19351   
     axis 180 30 90   XYZ
    dof rx
    limits (-10.0 170.0)
  end
  begin
     id 27 
     name rwrist
     direction -1 -4.48968e-011 9.00208e-027   
     length 1.59676   
     axis -6.29373e-015 -90 -90   XYZ
    dof ry
    limits (-180.0 0.0)
  end
  begin
     id 28
     name rhand
     direction -1 -4.49e-011 1.80099e-026   
     length 0.743862   
     axis -1.14882e-014 -90 -90   XYZ
    dof rx rz
    limits (-90.0 90.0)
           (-45.0 45.0)
  end
  begin
     id 29
     name rfingers
     direction -1 -4.49009e-011 3.6023e-026   
     length 0.599721   
     axis -2.29769e-014 -90 -90   XYZ
    dof rx
    limits (0.0 90.0)
  end
  begin
     id 30
     name rthumb
     direction -0.707107 -6.35025e-011 0.707107   
     length 0.861083   
     axis -90 -45 -5.37419e-014   XYZ
    dof rx rz
    limits (-45.0 45.0)
           (-45.0 45.0)
  end
:hierarchy
  begin
    root lhipjoint rhipjoint lowerback
    lhipjoint lfemur
    lfemur ltibia
    ltibia lfoot
    lfoot ltoes
    rhipjoint rfemur
    rfemur rtibia
    rtibia rfoot
    rfoot rtoes
    lowerback upperback
    upperback thorax
    thorax lowerneck lclavicle rclavicle
    lowerneck upperneck
    upperneck head
    lclavicle lhumerus
    lhumerus lradius
    lradius lwrist
    lwrist lhand lthumb
    lhand lfingers
    rclavicle rhumerus
    rhumerus rradius
    rradius rwrist
    rwrist rhand rthumb
    rhand rfingers
  end

#!OML:ASF H:\Martial Arts Walks\Project 1\Capture day 1\Session 1\male.ASF
:FULLY-SPECIFIED
:DEGREES
46
root -0.751177 11.5692 11.3389 8.91138 1.5974 -1.79707
lowerback 18.6361 1.62014 -2.69979
upperback -3.59481 1.66299 0.996555
thorax -14.7475 1.05422 2.15349
lowerneck -8.25924 -3.38949 -5.86793
upperneck 6.52912 -4.33144 5.68127
head 3.54313 -2.03255 2.43774
rclavicle -5.11249e-015 7.72775e-015
rhumerus 39.2249 -2.85959 -63.8506
rradius 94.6343
rwrist 20.956
rhand 1.34375 -14.0695
rfingers 7.12502
rthumb 26.8768 -42.1789
lclavicle -5.11249e-015 7.72775e-015
lhumerus 41.6328 -4.85049 87.492
lradius 87.9149
lwrist -35.8413
lhand -10.6201 2.16798
lfingers 7.12502
lthumb 15.3865 31.5754
rfemur -72.2206 -5.41741 20.851
rtibia 107.464
rfoot -33.4399 -17.621
rtoes -13.47
lfemur -72.9325 11.2874 -18.3777
ltibia 106.626
lfoot -31.5202 16.8
ltoes -14.8243
47
root -0.751606 11.568 11.3395 8.91413 1.60132 -1.79889
lowerback 18.6336 1.62485 -2.69758
upperback -3.58842 1.67025 0.998973
thorax -14.7389 1.0573 2.15277
lowerneck -8.25305 -3.38429 -5.86563
upperneck 6.49089 -4.3225 5.66833
head 3.52968 -2.02886 2.43421
rclavicle 2.41337e-015 -6.38596e-015
rhumerus 39.2351 -2.85518 -63.8109
rradius 94.6551
rwrist 20.9188
rhand 1.38983 -14.073
rfingers 7.12502
rthumb 26.9209 -42.1757
lclavicle 2.41337e-015 -6.38596e-015
lhumerus 41.6422 -4.8491 87.4941
lradius 87.9187
lwrist -35.8378
lhand -10.6239 2.13286
lfingers 7.12502
lthumb 15.3828 31.5406
rfemur -72.2301 -5.44781 20.8624
rtibia 107.474
rfoot -33.4431 -17.6105
rtoes -13.5056
lfemur -72.9434 11.2964 -18.3773
ltibia 106.639
lfoot -31.528 16.7936
ltoes -14.8027
48
root -0.75205 11.5667 11.34 8.91635 1.60418 -1.807
lowerback 18.6322 1.62893 -2.68922
upperback -3.58209 1.67844 1.00351
thorax -14.7308 1.0604 2.15066
lowerneck -8.2471 -3.37688 -5.85691
upperneck 6.44816 -4.31072 5.64979
head 3.51448 -2.02386 2.42811
rclavicle -1.9866e-014 1.70955e-014
rhumerus 39.2484 -2.84878 -63.7702
rradius 94.6691
rwrist 20.8837
rhand 1.41874 -14.0794
rfingers 7.12502
rthumb 26.9486 -42.1777
lclavicle -1.9866e-014 1.70955e-014
lhumerus 41.6522 -4.84527 87.4912
lradius 87.9257
lwrist -35.8343
lhand -10.6338 2.10718
lfingers 7.12502
lthumb 15.3733 31.5156
rfemur -72.2383 -5.47178 20.8798
rtibia 107.484
rfoot -33.446 -17.6061
rtoes -13.5463
lfemur -72.9558 11.3058 -18.3692
ltibia 106.656
lfoot -31.5358 16.7921
ltoes -14.7899
49
root -0.752513 11.565 11.3404 8.9176 1.60433 -1.81873
lowerback 18.6323 1.63321 -2.67747
upperback -3.57599 1.68775 1.00865
thorax -14.724 1.06377 2.14692
lowerneck -8.2428 -3.3678 -5.84279
upperneck 6.40562 -4.29704 5.62886
head 3.49933 -2.01787 2.42051
rclavicle -1.0343e-014 -4.84538e-015
rhumerus 39.2629 -2.84121 -63.7315
rradius 94.6764
rwrist 20.8561
rhand 1.4247 -14.0863
rfingers 7.12502
rthumb 26.9543 -42.1837
lclavicle -1.0343e-014 -4.84538e-015
lhumerus 41.663 -4.84139 87.4833
lradius 87.9355
lwrist -35.8348
lhand -10.6467 2.09496
lfingers 7.12502
lthumb 15.3608 31.5044
rfemur -72.2471 -5.48895 20.9007
rtibia 107.496
rfoot -33.4345 -17.6204
rtoes -13.6434
lfemur -72.9694 11.3169 -18.3567
ltibia 106.677
lfoot -31.5424 16.7965
ltoes -14.7876
50
root -0.753056 11.5629 11.3409 8.91588 1.60393 -1.83032
lowerback 18.6348 1.63637 -2.66606
upperback -3.57017 1.69535 1.01333
thorax -14.7188 1.06638 2.14335
lowerneck -8.23366 -3.35547 -5.82735
upperneck 6.35967 -4.27974 5.61307
head 3.48225 -2.00991 2.41457
rclavicle -1.12003e-014 1.20762e-014
rhumerus 39.2769 -2.83109 -63.698
rradius 94.6772
rwrist 20.8388
rhand 1.4056 -14.0859
rfingers 7.12502
rthumb 26.936 -42.1862
lclavicle -1.12003e-014 1.20762e-014
lhumerus 41.6743 -4.83581 87.4694
lradius 87.9484
lwrist -35.8312
lhand -10.6604 2.09221
lfingers 7.12502
lthumb 15.3476 31.5026
rfemur -72.2521 -5.50495 20.9234
rtibia 107.511
rfoot -33.4114 -17.6605
rtoes -13.7922
lfemur -72.9808 11.3255 -18.3423
ltibia 106.7
lfoot -31.5508 16.802
ltoes -14.781
51
root -0.753671 11.5607 11.3415 8.91158 1.59996 -1.84152
lowerback 18.6385 1.64025 -2.65581
upperback -3.56474 1.70341 1.01673
thorax -14.7149 1.06924 2.13883
lowerneck -8.22183 -3.34207 -5.81523
upperneck 6.31479 -4.26179 5.60882
head 3.46534 -2.00122 2.41276
rclavicle -3.84524e-015 -9.56651e-015
rhumerus 39.2894 -2.82104 -63.6717
rradius 94.6716
rwrist 20.8379
rhand 1.3667 -14.0779
rfingers 7.12502
rthumb 26.8988 -42.184
lclavicle -3.84524e-015 -9.56651e-015
lhumerus 41.6863 -4.83166 87.4522
lradius 87.9601
lwrist -35.8301
lhand -10.6835 2.09542
lfingers 7.12502
lthumb 15.3254 31.5075
rfemur -72.2564 -5.51418 20.9448
rtibia 107.527
rfoot -33.382 -17.7056
rtoes -13.9562
lfemur -72.987 11.3356 -18.3262
ltibia 106.724
lfoot -31.5635 16.8056
ltoes -14.7673
52
root -0.75432 11.559 11.3419 8.90592 1.59582 -1.8496
lowerback 18.6414 1.64328 -2.6475
upperback -3.55947 1.7096 1.01805
thorax -14.7105 1.07129 2.13365
lowerneck -8.22626 -3.3335 -5.846
upperneck 6.0086 -4.22378 5.4259
head 3.74661 -2.00775 2.6304
rclavicle 3.1029e-015 -5.96354e-015
rhumerus 39.3012 -2.81183 -63.6544
rradius 94.6626
rwrist 20.8478
rhand 1.32263 -14.0632
rfingers 7.12502
rthumb 26.8566 -42.1758
lclavicle 3.1029e-015 -5.96354e-015
lhumerus 41.6998 -4.8277 87.4326
lradius 87.9706
lwrist -35.8242
lhand -10.7106 2.10307
lfingers 7.12502
lthumb 15.2993 31.5172
rfemur -72.2563 -5.5189 20.961
rtibia 107.541
rfoot -33.351 -17.751
rtoes -14.1036
lfemur -72.9858 11.3402 -18.3112
ltibia 106.744
lfoot -31.5798 16.8058
ltoes -14.7404
53
root -0.755015 11.5571 11.3426 8.89939 1.58943 -1.85622
lowerback 18.6423 1.64655 -2.64043
upperback -3.55474 1.71557 1.01738
thorax -14.7055 1.07323 2.12699
lowerneck -8.20741 -3.32189 -5.83905
upperneck 5.9681 -4.20964 5.43842
head 3.72792 -2.00029 2.63418
rclavicle 6.63444e-015 1.43622e-014
rhumerus 39.311 -2.80415 -63.6461
rradius 94.6517
rwrist 20.8647
rhand 1.2765 -14.0453
rfingers 7.12502
rthumb 26.8125 -42.1646
lclavicle 6.63444e-015 1.43622e-014
lhumerus 41.7148 -4.82521 87.4118
lradius 87.9781
lwrist -35.8173
lhand -10.7389 2.11202
lfingers 7.12502
lthumb 15.272 31.5282
rfemur -72.2569 -5.5191 20.9741
rtibia 107.555
rfoot -33.3237 -17.7886
rtoes -14.2169
lfemur -72.9818 11.3424 -18.2954
ltibia 106.764
lfoot -31.5982 16.804
ltoes -14.701
54
root -0.755843 11.5559 11.3432 8.89273 1.58349 -1.86264
lowerback 18.6429 1.6489 -2.63421
upperback -3.55155 1.72005 1.01628
thorax -14.7021 1.07457 2.12082
lowerneck -8.18906 -3.31348 -5.83302
upperneck 5.93358 -4.19987 5.45125
head 3.71177 -1.99501 2.638
rclavicle -4.87333e-015 9.88954e-015
rhumerus 39.3201 -2.79639 -63.6474
rradius 94.6413
rwrist 20.8842
rhand 1.24118 -14.0288
rfingers 7.12502
rthumb 26.7787 -42.1533
lclavicle -4.87333e-015 9.88954e-015
lhumerus 41.7288 -4.82181 87.3907
lradius 87.9812
lwrist -35.8111
lhand -10.771 2.11866
lfingers 7.12502
lthumb 15.2411 31.5372
rfemur -72.2532 -5.51117 20.9842
rtibia 107.564
rfoot -33.3074 -17.8117
rtoes -14.2774
lfemur -72.9731 11.3403 -18.2778
ltibia 106.778
lfoot -31.615 16.8032
ltoes -14.65
55
root -0.756781 11.5549 11.3439 8.88739 1.57722 -1.86507
lowerback 18.6384 1.65121 -2.63227
upperback -3.54829 1.72339 1.01395
thorax -14.6955 1.07568 2.11609
lowerneck -8.17262 -3.30802 -5.82646
upperneck 5.90373 -4.19387 5.4603
head 3.69774 -1.99172 2.64018
rclavicle 1.84217e-014 9.14409e-015
rhumerus 39.3301 -2.78975 -63.6557
rradius 94.6337
rwrist 20.899
rhand 1.22346 -14.0203
rfingers 7.12502
rthumb 26.7617 -42.1474
lclavicle 1.84217e-014 9.14409e-015
lhumerus 41.7449 -4.81852 87.3707
lradius 87.982
lwrist -35.8003
lhand -10.7939 2.1256
lfingers 7.12502
lthumb 15.219 31.5458
rfemur -72.2494 -5.50073 20.9887
rtibia 107.571
rfoot -33.3008 -17.8237
rtoes -14.3009
lfemur -72.963 11.3312 -18.2629
ltibia 106.79
lfoot -31.6278 16.8109
ltoes -14.5967
56
root -0.757886 11.5539 11.3446 8.88448 1.57151 -1.86467
lowerback 18.6274 1.65195 -2.63562
upperback -3.54637 1.72363 1.01229
thorax -14.6867 1.07587 2.11621
lowerneck -8.15603 -3.30391 -5.81705
upperneck 5.87971 -4.1894 5.45967
head 3.68538 -1.98952 2.63838
rclavicle 1.81111e-014 -1.26477e-014
rhumerus 39.337 -2.77841 -63.6698
rradius 94.6243
rwrist 20.9137
rhand 1.2257 -14.0125
rfingers 7.12502
rthumb 26.7638 -42.1392
lclavicle 1.81111e-014 -1.26477e-014
lhumerus 41.7581 -4.81111 87.3499
lradius 87.9848
lwrist -35.7747
lhand -10.8056 2.13634
lfingers 7.12502
lthumb 15.2078 31.5574
rfemur -72.249 -5.48938 20.9904
rtibia 107.58
rfoot -33.3061 -17.8248
rtoes -14.2814
lfemur -72.9551 11.3166 -18.2502
ltibia 106.801
lfoot -31.6346 16.8307
ltoes -14.5613
57
root -0.759018 11.5529 11.3455 8.8825 1.56627 -1.86269
lowerback 18.6143 1.65229 -2.64003
upperback -3.54485 1.72305 1.0101
thorax -14.677 1.07575 2.11661
lowerneck -8.14457 -3.30163 -5.80752
upperneck 5.86168 -4.18698 5.45447
head 3.67609 -1.98844 2.63486
rclavicle 3.5129e-015 -1.21507e-014
rhumerus 39.3438 -2.76614 -63.6882
rradius 94.6128
rwrist 20.9251
rhand 1.23739 -14.0104
rfingers 7.12502
rthumb 26.775 -42.1355
lclavicle 3.5129e-015 -1.21507e-014
lhumerus 41.7696 -4.80303 87.3314
lradius 87.9865
lwrist -35.7527
lhand -10.8093 2.14667
lfingers 7.12502
lthumb 15.2042 31.568
rfemur -72.2483 -5.47861 20.9899
rtibia 107.588
rfoot -33.3159 -17.8215
rtoes -14.2546
lfemur -72.9461 11.2973 -18.2391
ltibia 106.811
lfoot -31.6354 16.8653
ltoes -14.5601
58
root -0.760272 11.5516 11.3462 8.88377 1.5615 -1.86191
lowerback 18.6005 1.65184 -2.64448
upperback -3.54478 1.72156 1.00891
thorax -14.6686 1.07531 2.11846
lowerneck -8.13736 -3.30003 -5.79878
upperneck 5.84692 -4.18496 5.44542
head 3.66871 -1.98769 2.63012
rclavicle 1.2365e-014 5.46658e-015
rhumerus 39.3506 -2.7509 -63.7084
rradius 94.5989
rwrist 20.9333
rhand 1.24996 -14.0078
rfingers 7.12502
rthumb 26.7871 -42.1309
lclavicle 1.2365e-014 5.46658e-015
lhumerus 41.7804 -4.79286 87.3143
lradius 87.9897
lwrist -35.7308
lhand -10.8037 2.15976
lfingers 7.12502
lthumb 15.2096 31.5807
rfemur -72.254 -5.46873 20.9944
rtibia 107.601
rfoot -33.3216 -17.8296
rtoes -14.2537
lfemur -72.946 11.2781 -18.2274
ltibia 106.824
lfoot -31.6304 16.9046
ltoes -14.5685
59
root -0.761463 11.5498 11.3471 8.88492 1.55652 -1.86147
lowerback 18.5879 1.65094 -2.64737
upperback -3.54437 1.71982 1.00774
thorax -14.6605 1.07462 2.1195
lowerneck -8.1379 -3.29918 -5.79409
upperneck 5.83611 -4.18329 5.4372
head 3.66443 -1.98707 2.6264
rclavicle -1.01163e-014 -5.44173e-015
rhumerus 39.3599 -2.73412 -63.7288
rradius 94.5848
rwrist 20.9391
rhand 1.26496 -14.0115
rfingers 7.12502
rthumb 26.8014 -42.1325
lclavicle -1.01163e-014 -5.44173e-015
lhumerus 41.7911 -4.78126 87.301
lradius 87.9916
lwrist -35.7184
lhand -10.7963 2.17028
lfingers 7.12502
lthumb 15.2167 31.5907
rfemur -72.2638 -5.46393 21.0005
rtibia 107.618
rfoot -33.3306 -17.8326
rtoes -14.2479
lfemur -72.9479 11.2599 -18.2156
ltibia 106.842
lfoot -31.6263 16.9449
ltoes -14.5845
60
root -0.762636 11.5477 11.3477 8.88862 1.55212 -1.86456
lowerback 18.579 1.65035 -2.64497
upperback -3.54451 1.71972 1.00686
thorax -14.6551 1.07427 2.1173
lowerneck -8.14421 -3.30046 -5.79199
upperneck 5.82412 -4.184 5.43079
head 3.66118 -1.98753 2.62361
rclavicle -1.73626e-015 -2.93207e-015
rhumerus 39.3709 -2.71966 -63.746
rradius 94.5718
rwrist 20.9419
rhand 1.2784 -14.019
rfingers 7.12502
rthumb 26.8143 -42.1381
lclavicle -1.73626e-015 -2.93207e-015
lhumerus 41.8036 -4.7713 87.2931
lradius 87.9923
lwrist -35.7176
lhand -10.785 2.17638
lfingers 7.12502
lthumb 15.2276 31.5959
rfemur -72.2802 -5.46054 21.0121
rtibia 107.638
rfoot -33.3395 -17.8327
rtoes -14.2374
lfemur -72.9579 11.245 -18.2009
ltibia 106.863
lfoot -31.6254 16.9756
ltoes -14.6007
